Coordinates
version=1
nRows=16
nColumns=36
inDegrees=yes

Units are S.I. units (second, meters, Newtons, ...)
If the header above contains a line with 'inDegrees', this indicates whether rotational values are in degrees (yes) or radians (no).

endheader
time	pelvis_tilt	pelvis_list	pelvis_rotation	pelvis_tx	pelvis_ty	pelvis_tz	hip_flexion_r	hip_adduction_r	hip_rotation_r	knee_angle_r	knee_angle_r_beta	ankle_angle_r	subtalar_angle_r	mtp_angle_r	hip_flexion_l	hip_adduction_l	hip_rotation_l	knee_angle_l	knee_angle_l_beta	ankle_angle_l	subtalar_angle_l	mtp_angle_l	lumbar_extension	lumbar_bending	lumbar_rotation	arm_flex_r	arm_add_r	arm_rot_r	elbow_flex_r	pro_sup_r	arm_flex_l	arm_add_l	arm_rot_l	elbow_flex_l	pro_sup_l
      2.98333330	     -1.97777637	     -9.84256743	      0.21077050	      0.04938590	      0.89046103	      0.01669195	     26.65192666	     -0.58030605	     -0.94941147	      9.41446171	      0.16431335	     -5.14940559	    -11.24173864	     -7.49999986	     11.29448234	     -1.06553300	     11.35751015	     10.38405513	      0.18123595	      0.03314538	    -17.90420922	     -7.49999986	      0.13619238	     -3.20830600	      4.07253815	     29.77956388	    -23.06693954	     16.59591749	     74.32307787	     97.59029728	     63.78204200	     -3.99072208	     56.08207734	     39.15916748	     94.86358463
      3.00000000	     -1.95929672	     -9.69967435	      0.28481784	      0.05024416	      0.88831131	      0.01648829	     26.19506638	     -0.45716953	     -0.94594411	      9.67655586	      0.16888776	     -5.19060100	    -11.15135926	     -7.49999986	     11.21282358	     -0.88711213	     11.39655052	     10.31163140	      0.17997192	      0.15185738	    -17.89127734	     -7.49999986	      0.24703333	     -3.08089436	      3.96413337	     29.33680409	    -22.85564187	     16.67816107	     74.18712710	     97.63733799	     63.84708383	     -3.96753150	     56.17833781	     39.10199842	     94.89677816
      3.01666670	     -1.63932251	     -9.42947938	      0.27949376	      0.05171849	      0.89041056	      0.01697568	     25.30915975	     -0.38384030	     -1.36198049	      9.77536979	      0.17061239	     -5.30013427	    -10.67085224	     -7.49999986	     10.59373318	     -0.65920020	     11.15276544	      9.88468859	      0.17252036	      0.00133450	    -17.46476481	     -7.49999986	     -0.02885716	     -3.33796720	      4.40074351	     28.05631067	    -22.38775889	     14.95233463	     74.10046460	     99.25620591	     64.77736589	     -3.31128590	     59.10809044	     37.63927783	     94.83476993
      3.03333330	     -1.45471826	     -9.21403202	      0.38055371	      0.05433930	      0.88649516	      0.01612165	     24.63171835	     -0.29606299	     -1.31981016	     10.03738000	      0.17518533	     -5.30948368	    -10.77745021	     -7.49999986	     10.22735061	     -0.42677556	     11.10799594	      9.66684012	      0.16871819	     -0.23478316	    -17.95193416	     -7.49999986	      0.00321024	     -3.23974071	      4.20599075	     27.59672474	    -21.85066208	     14.97931100	     73.38556497	     98.31148652	     64.78266523	     -3.33187589	     59.79813399	     37.37289042	     94.02046442
      3.05000000	     -1.28507270	     -8.95078456	      0.36928543	      0.05486832	      0.88730496	      0.01578335	     23.92002068	     -0.23392024	     -1.57857243	     10.19367216	      0.17791314	     -5.34583957	    -10.82952102	     -7.49999987	      9.74854127	     -0.15761686	     10.77487644	      9.35935327	      0.16335153	     -0.56274241	    -17.83314784	     -7.49999987	      0.03786677	     -3.18021668	      4.27496798	     26.90269388	    -21.35745827	     14.56135149	     72.77346509	     98.52805597	     64.73807341	     -3.20368513	     60.38378814	     37.15010771	     94.16731433
      3.06666670	     -1.17973097	     -8.67283515	      0.36355981	      0.05551600	      0.88718663	      0.01670733	     23.32137201	     -0.17232356	     -1.63919635	     10.46304995	      0.18261467	     -5.19890635	    -11.09588146	     -7.49999987	      9.39948768	      0.11409957	     10.59762095	      9.20188913	      0.16060326	     -0.91199662	    -17.90560527	     -7.49999987	      0.17123759	     -3.22323479	      4.32329107	     25.97564774	    -20.76621329	     14.25450312	     72.23069441	     98.37569128	     65.06854541	     -3.13727734	     62.45943533	     36.40930829	     93.62040880
      3.08333330	     -0.95382365	     -8.44374067	      0.44566644	      0.05952886	      0.88761003	      0.01584059	     22.40225206	     -0.11218145	     -1.59853517	     10.70616528	      0.18685783	     -4.74862119	    -11.01423810	     -7.49999987	      8.85168158	      0.34208775	     10.38085784	      8.94682516	      0.15615156	     -1.08386742	    -18.03331350	     -7.49999987	      0.23417267	     -3.08797016	      4.34123463	     25.13010110	    -20.12013683	     13.85900847	     71.50706150	     98.34864336	     64.75748084	     -3.27397215	     62.82807572	     36.60377066	     93.47092645
      3.10000000	     -0.95039348	     -8.18014165	      0.46657971	      0.05887859	      0.88842067	      0.01563270	     21.77570371	     -0.10885256	     -1.56502290	     10.75055309	      0.18763255	     -4.24988427	    -11.04353126	     -7.49999987	      8.54066957	      0.62499965	     10.12371805	      8.71905777	      0.15217627	     -1.05644157	    -17.97631132	     -7.49999987	      0.49046816	     -2.97466121	      4.42540951	     24.11561060	    -19.61813557	     13.74071484	     70.96532827	     98.41093348	     64.39978205	     -3.44167206	     63.27456433	     36.85055343	     93.54251859
      3.11666670	     -0.91846099	     -7.95545051	      0.51984383	      0.05862579	      0.89007346	      0.01489261	     21.21433277	     -0.10759389	     -1.60298012	     10.76033620	      0.18780330	     -4.08311138	    -11.09518916	     -7.49999987	      8.46748639	      0.90022941	      9.84528191	      8.75508100	      0.15280499	     -1.17355721	    -18.01122055	     -7.49999987	      0.51575619	     -2.81654090	      4.44039158	     23.25814907	    -19.26569403	     13.88789492	     70.65560423	     98.42889248	     64.10820539	     -3.54727645	     63.45035889	     36.90649736	     93.56887617
      3.13333330	     -0.82589734	     -7.68748345	      0.51543968	      0.05746601	      0.88905990	      0.01526915	     20.63676764	     -0.12470878	     -1.49048357	     10.52224260	      0.18364778	     -3.83814840	    -10.93191240	     -7.49999987	      8.30039542	      1.19600453	      9.49786122	      8.54530585	      0.14914372	     -1.44714001	    -17.86020639	     -7.49999987	      0.45113888	     -2.77999739	      4.38170705	     22.82217407	    -18.24050724	     13.17101594	     68.90579560	     98.02105154	     64.24875572	     -4.02923465	     65.67532364	     37.53427609	     93.25212288
      3.15000000	     -0.90339321	     -7.46126131	      0.61407492	      0.05667239	      0.88517612	      0.01580506	     20.44532580	     -0.08623694	     -0.90954771	     10.52126302	      0.18363068	     -3.49999732	    -10.91600981	     -7.49999987	      8.54135786	      1.48536179	      9.44572368	      8.64987341	      0.15096877	     -1.40000188	    -18.04482477	     -7.49999987	      0.48546216	     -2.75708471	      4.34244890	     22.40426113	    -17.86626806	     13.28055849	     67.92714925	     96.84604892	     64.50822355	     -4.09831443	     67.14451409	     37.55876744	     92.16047334
      3.16666670	     -0.86827481	     -7.29365968	      0.76851587	      0.05855049	      0.88392882	      0.01502973	     20.05174510	     -0.07496300	     -0.59703638	     10.52637753	      0.18371995	     -3.01673856	    -10.66406854	     -7.49999987	      8.60443074	      1.72194942	      9.35861959	      8.65245343	      0.15101380	     -1.30101999	    -17.93386515	     -7.49999987	      0.35166431	     -2.59773876	      4.35629376	     21.85818692	    -17.61258775	     13.10196110	     67.46847500	     96.32107361	     64.37073862	     -4.11157002	     67.35050686	     38.09526529	     91.45949787
      3.18333330	     -0.96847698	     -7.13933693	      0.93749419	      0.05969828	      0.88136274	      0.01429995	     19.88298910	     -0.07208185	     -0.10397544	     10.70972809	      0.18692002	     -2.40411011	    -10.55971501	     -7.49999987	      8.77824552	      1.93341249	      9.36983744	      8.66724490	      0.15127196	     -1.12641616	    -17.88238729	     -7.49999987	      0.47629144	     -2.56458917	      4.24025700	     21.49936072	    -17.39315493	     13.09391483	     66.78008543	     96.18729302	     64.47882929	     -3.97567484	     68.37149834	     37.98518813	     91.29661605
      3.20000000	     -1.17755040	     -7.02745217	      1.08881126	      0.05988810	      0.88001387	      0.01460378	     19.90730195	     -0.06614084	      0.43684747	     10.85651797	      0.18948198	     -2.59742511	    -11.22261679	     -7.49999987	      9.03308409	      2.10433005	      9.38679744	      8.63468913	      0.15070376	     -1.25188438	    -18.10287533	     -7.49999987	      0.85882036	     -2.47425695	      4.13226613	     21.20722161	    -17.40001326	     13.98002355	     65.79069520	     92.80712949	     64.88414378	     -3.86844480	     71.08624744	     37.61292283	     88.09500315
      3.21666670	     -1.24730368	     -6.92707878	      1.26158726	      0.05968312	      0.87953213	      0.01466620	     19.80773145	     -0.05357165	      0.56363530	     11.05183264	      0.19289087	     -2.17217467	    -11.14181679	     -7.49999987	      9.09671734	      2.24325270	      9.18008328	      8.53512300	      0.14896600	     -0.95500981	    -17.65849325	     -7.49999987	      0.84960850	     -2.42812909	      4.32825616	     20.18596754	    -17.13380222	     12.30667376	     65.93066752	     97.25365745	     65.21316275	     -3.29724310	     72.24843687	     37.14942751	     89.85696887
      3.23333330	     -1.41228128	     -6.79426071	      1.48760654	      0.06069834	      0.87837623	      0.01373390	     19.75540289	     -0.09784076	      0.82321032	     11.14947513	      0.19459505	     -2.00843315	    -11.49536914	     -7.49999987	      9.21208962	      2.44304058	      9.25355180	      8.41078015	      0.14679581	     -1.06856912	    -17.78360555	     -7.49999987	      1.20253579	     -2.42870626	      3.92775987	     20.01862780	    -16.87512045	     13.22703030	     64.90766456	     94.81562183	     65.27162038	     -3.34239131	     73.61425856	     36.78503394	     87.62734701
